<svg width="23" height="21" viewBox="0 0 23 21" fill="none" xmlns="http://www.w3.org/2000/svg">
<path d="M21.9253 11.4785C22.2739 11.0894 22.4863 10.5757 22.4863 10.0137C22.4863 8.80225 21.5005 7.81641 20.2891 7.81641H16.0244C16.4468 6.53467 16.627 4.83398 16.627 4.10498V3.37305C16.627 1.75781 15.3125 0.443359 13.6973 0.443359H12.9648C12.6289 0.443359 12.3359 0.671875 12.2544 0.998047L11.8555 2.59424C11.2964 4.82959 9.52148 7.2959 7.68457 7.74414C7.36279 6.92969 6.56836 6.35156 5.64062 6.35156H1.24609C0.841797 6.35156 0.513672 6.67969 0.513672 7.08398V20.2676C0.513672 20.6719 0.841797 21 1.24609 21H5.64062C6.51416 21 7.27002 20.4878 7.62402 19.7476L10.1406 20.5864C10.9634 20.8608 11.8208 21 12.6885 21H18.8242C20.0356 21 21.0215 20.0142 21.0215 18.8027C21.0215 18.5171 20.9668 18.2437 20.8672 17.9932C21.7988 17.7388 22.4863 16.8848 22.4863 15.873C22.4863 15.311 22.2739 14.7974 21.9253 14.4082C22.2739 14.019 22.4863 13.5054 22.4863 12.9434C22.4863 12.3813 22.2739 11.8677 21.9253 11.4785ZM6.37305 18.8027C6.37305 19.2065 6.04443 19.5352 5.64062 19.5352H1.97852V7.81641H5.64062C6.04443 7.81641 6.37305 8.14502 6.37305 8.54883V18.8027ZM18.8242 12.2109H20.2891C20.6929 12.2109 21.0215 12.5396 21.0215 12.9434C21.0215 13.3472 20.6929 13.6758 20.2891 13.6758H18.8242C18.4199 13.6758 18.0918 14.0039 18.0918 14.4082C18.0918 14.8125 18.4199 15.1406 18.8242 15.1406H20.2891C20.6929 15.1406 21.0215 15.4692 21.0215 15.873C21.0215 16.2769 20.6929 16.6055 20.2891 16.6055H18.8242C18.4199 16.6055 18.0918 16.9336 18.0918 17.3379C18.0918 17.7422 18.4199 18.0703 18.8242 18.0703C19.228 18.0703 19.5566 18.3989 19.5566 18.8027C19.5566 19.2065 19.228 19.5352 18.8242 19.5352H12.6885C11.9785 19.5352 11.2769 19.4214 10.6035 19.1968L7.83789 18.2749V9.21191C8.98682 8.99365 10.1113 8.26611 11.1265 7.0752C12.1177 5.91211 12.9214 4.37012 13.2764 2.94971L13.5366 1.9082H13.6973C14.5049 1.9082 15.1621 2.56543 15.1621 3.37305V4.10498C15.1621 5.08838 14.8545 6.97461 14.4609 7.81641H12.9648C12.5605 7.81641 12.2324 8.14453 12.2324 8.54883C12.2324 8.95312 12.5605 9.28125 12.9648 9.28125H20.2891C20.6929 9.28125 21.0215 9.60986 21.0215 10.0137C21.0215 10.4175 20.6929 10.7461 20.2891 10.7461H18.8242C18.4199 10.7461 18.0918 11.0742 18.0918 11.4785C18.0918 11.8828 18.4199 12.2109 18.8242 12.2109Z" fill="black"/>
</svg>
