<svg width="159" height="31" viewBox="0 0 159 31" fill="none" xmlns="http://www.w3.org/2000/svg">
<path d="M60.411 3.73108C61.0488 1.45835 63.3267 -0.0871015 65.6046 0.00380759C67.8826 -0.0871015 70.0694 1.54926 70.7983 3.64017C71.1628 4.82199 71.0717 6.00381 70.7983 7.09472L73.2585 9.09472C73.623 9.36744 73.8963 9.82199 73.8052 10.3674V28.5493C73.8052 29.3674 73.8052 30.1856 73.5319 30.9129H58.0419L57.7686 30.4584V26.3674V10.9129C57.8597 10.3674 57.5863 9.54926 58.133 9.09472L64.5112 4.00381C64.9668 3.73108 65.6046 2.82199 66.1513 3.36744C67.427 4.36744 68.6115 5.45835 69.9783 6.36744C70.1605 5.09472 69.9783 3.73108 69.1582 2.73108C67.8826 1.00381 65.3313 0.549262 63.5089 1.45835C62.4155 2.00381 61.6866 3.00381 61.1399 4.00381L60.411 3.73108ZM58.7708 9.9129V29.9129H72.8029V10.822C72.7118 10.5493 72.894 10.0038 72.6207 9.82199L70.3427 7.9129C69.796 8.64017 69.1582 9.27654 68.5204 9.82199C68.3382 10.4584 68.4293 11.1856 67.9737 11.7311C67.1536 13.0038 65.0579 13.1856 64.0557 12.0947C62.78 11.1856 62.8711 9.09472 64.0557 8.18563C64.6024 7.64017 65.4224 7.27654 66.2425 7.54926C67.0625 7.73108 67.6092 8.27654 68.1559 8.82199C68.7026 8.36744 69.1582 7.9129 69.5227 7.27654C68.247 6.27654 66.9714 5.36744 65.7869 4.27654L58.7708 9.9129ZM64.0557 10.0947C64.0557 11.0038 64.8757 11.9129 65.7869 11.822C66.6981 11.9129 67.3359 11.0947 67.5181 10.2765C66.8803 10.3674 66.3336 10.6402 65.6958 10.4584C65.3313 10.2765 65.4224 9.73108 65.7869 9.64017L67.2448 9.27654C66.9714 8.9129 66.5158 8.64017 66.0602 8.45835C65.0579 8.36744 64.0557 9.09472 64.0557 10.0947Z" fill="#FBCD06"/>
<path d="M63.4178 15.2765C63.5089 14.9128 64.0556 14.9128 64.329 14.9128C65.5135 14.8219 66.8803 14.8219 67.8826 15.6401C69.2493 16.5492 69.6138 18.4583 68.976 19.9128C68.5204 20.8219 67.7914 21.5492 66.7891 21.731C65.9691 21.9128 65.2401 21.8219 64.4201 21.8219V22.6401C65.5135 22.6401 66.5158 22.5492 67.6092 22.731C67.9737 22.731 68.1559 23.3674 67.7914 23.5492C66.698 23.731 65.5135 23.6401 64.4201 23.6401C64.329 24.5492 64.5112 25.4583 64.329 26.3674C64.2378 26.731 63.6 26.8219 63.5089 26.3674C63.3267 25.5492 63.4178 24.6401 63.4178 23.731C63.0533 23.6401 62.1421 23.731 62.2333 23.0946C62.4155 22.5492 62.9622 22.6401 63.4178 22.5492V21.9128C63.0533 21.8219 62.2333 21.9128 62.2333 21.3674C62.3244 20.8219 62.9622 20.8219 63.4178 20.731V15.2765ZM64.4201 15.9128V20.8219C65.4224 20.731 66.5158 21.0946 67.3358 20.3674C68.7026 19.4583 68.6115 17.2765 67.2447 16.3674C66.4247 15.731 65.3313 16.0037 64.4201 15.9128Z" fill="#FBCD06"/>
<path d="M9.02063 7.0946H9.84069V8.54915C11.2075 8.64006 12.6653 8.82188 13.8499 9.45824C15.9456 10.4582 17.4946 12.2764 18.3146 14.4582C18.7702 15.6401 18.8613 17.0037 18.6791 18.2764C18.4057 20.5492 17.1301 22.4582 15.3989 23.8219C13.8137 25.053 11.8487 25.6958 9.84069 25.6401V27.1855H9.02063V25.6401C8.38281 25.6401 7.65387 25.6401 7.10716 25.4582C4.92034 25.0946 3.00688 23.8219 1.73123 22.0946C0.765642 20.8251 0.166915 19.3159 0 17.731L0 16.6401C0.0911175 15.731 0.273352 14.9128 0.546705 14.0946C1.25024 12.4371 2.43111 11.0253 3.93967 10.0381C5.44823 9.05084 7.21659 8.53265 9.02063 8.54915V7.0946ZM2.46017 12.4582C1.59116 13.5836 1.05403 14.9286 0.909157 16.3418C0.764287 17.7551 1.01743 19.1806 1.64011 20.4582C2.91576 23.1855 5.92264 25.0037 9.02063 25.0037V9.27642C6.46934 9.18551 4.00917 10.4582 2.46017 12.4582ZM9.84069 9.27642V25.0037L10.843 24.9128C14.1232 24.6401 17.1301 22.0037 17.7679 18.731C18.0413 17.6401 18.0413 16.5492 17.7679 15.4582C16.9479 11.9128 13.4854 9.18551 9.84069 9.27642ZM21.9593 7.73097H22.7794V25.2764L32.0734 12.8219L35.8092 7.73097H36.7203V26.5492H35.9003V9.0037C33.7135 11.731 31.6178 14.6401 29.5221 17.4582L22.7794 26.5492H21.9593V7.73097ZM40.4562 7.73097H41.2762V18.6401H54.2149V7.73097H55.035V26.5492H54.2149V19.3673H41.2762V26.5492H40.4562V7.73097ZM90.753 15.0946C92.4842 14.8219 94.3977 15.2764 95.6734 16.4582C97.1312 17.8219 97.9513 19.9128 97.5868 21.9128C97.1312 24.4582 94.8533 26.731 92.1198 26.8219C89.1129 27.1855 86.1971 24.731 85.7416 21.8219C85.1037 18.6401 87.655 15.3673 90.753 15.0946ZM90.753 15.8219C89.2951 16.0037 88.1106 17.0037 87.2906 18.1855C85.8327 20.3673 86.4705 23.5492 88.5662 25.0946C90.3885 26.5492 93.2132 26.4582 94.9444 24.9128C96.5845 23.5492 97.3135 21.1855 96.4934 19.1855C95.6734 16.9128 93.2132 15.2764 90.753 15.8219ZM117.542 15.1855C119.455 14.731 121.46 15.2764 122.917 16.6401C123.373 17.0037 123.1 17.731 123.191 18.1855C122.257 16.9469 120.891 16.1033 119.364 15.8219C117.45 15.4582 115.537 16.4582 114.444 17.9128C113.889 18.7019 113.562 19.6276 113.497 20.5893C113.433 21.5509 113.634 22.5117 114.079 23.3673C115.081 25.2764 117.359 26.5492 119.546 26.0946C121.004 25.9128 122.28 24.8219 123.191 23.6401C123.1 24.1855 123.373 24.731 122.917 25.0946C121.46 26.8219 118.908 27.2764 116.813 26.6401C114.444 25.8219 112.621 23.4582 112.712 20.9128C112.621 18.1855 114.808 15.6401 117.542 15.1855ZM129.66 15.0946C132.12 14.5492 134.854 15.8219 136.038 18.0037V15.2764H136.858V26.5492H136.038V23.8219C135.577 24.6258 134.933 25.3104 134.158 25.8203C133.383 26.3302 132.499 26.6512 131.577 26.7573C130.654 26.8635 129.72 26.7519 128.849 26.4315C127.978 26.1111 127.195 25.5908 126.562 24.9128C125.564 23.8651 124.992 22.4841 124.958 21.0388C124.925 19.5935 125.431 18.1874 126.38 17.0946C127.2 16.0946 128.385 15.2764 129.66 15.0946ZM129.934 15.8219C128.658 16.0037 127.473 16.9128 126.653 18.0037C126.103 18.8073 125.792 19.7492 125.753 20.7215C125.715 21.6938 125.952 22.6572 126.437 23.5014C126.922 24.3456 127.635 25.0366 128.495 25.4952C129.355 25.9538 130.327 26.1616 131.3 26.0946C134.034 26.0037 136.312 23.2764 136.038 20.5492C135.947 18.731 134.763 17.0037 133.123 16.1855C132.12 15.6401 131.027 15.6401 129.934 15.8219ZM139.319 26.5492L144.877 15.0037L148.613 22.6401L150.435 26.5492H149.524C148.066 23.2764 146.426 20.0037 144.786 16.731L140.048 26.5492H139.319ZM76.4476 15.2764H77.2676V19.0946L81.3679 15.4582C81.7324 15.1855 82.2791 15.3673 82.6436 15.2764L77.541 19.8219L84.0103 26.5492C83.6459 26.4582 83.008 26.731 82.7347 26.2764L77.2676 20.731V26.5492H76.4476V15.2764ZM100.503 15.2764H101.323V21.6401H108.977V15.2764H109.797V26.5492H108.977V22.3673H101.323V26.5492H100.503V15.2764ZM149.433 15.2764H158.909V16.0037H154.626V26.5492H153.806V16.0037H149.433V15.2764Z" fill="#067672"/>
</svg>
